<svg version="1.1" viewBox="0.0 0.0 225.28608923884514 100.0" fill="none" stroke="none" stroke-linecap="square" stroke-miterlimit="10" xmlns:xlink="http://www.w3.org/1999/xlink" xmlns="http://www.w3.org/2000/svg"><clipPath id="p.0"><path d="m0 0l225.28609 0l0 100.0l-225.28609 0l0 -100.0z" clip-rule="nonzero"/></clipPath><g clip-path="url(#p.0)"><path fill="#000000" fill-opacity="0.0" d="m0 0l225.28609 0l0 100.0l-225.28609 0z" fill-rule="evenodd"/><path fill="#000000" fill-opacity="0.0" d="m1.5564305 2.1784778l276.6299 0l0 85.57481l-276.6299 0z" fill-rule="evenodd"/><path fill="#000000" fill-opacity="0.0" d="m0.0131233595 0.007874016l225.29134 0l0 100.0l-225.29134 0z" fill-rule="evenodd"/><path fill="#ffffff" d="m71.63025 15.457246q-2.5 1.046874 -3.859375 3.140624q-1.359375 2.09375 -1.359375 5.046875q0 1.375 0.25 1.921875q0.265625 0.53125 0.265625 0.609375q-2.015625 0 -3.0 -0.828125q-0.984375 -0.84375 -0.984375 -2.796875q0 -2.390625 1.953125 -4.640625q1.96875 -2.265624 5.015625 -3.656249q3.0625 -1.40625 6.125 -1.40625q0.53125 0 1.5 0.078125l-2.390625 11.124999l5.484375 0l2.390625 -11.124999l5.375 0l-5.9375 27.921875l-5.375 0l2.984375 -14.03125l-5.484375 0l-2.984375 14.03125l-5.375 0l5.40625 -25.390625zm21.135788 25.546875q-2.765625 0 -4.375 -1.421875q-1.59375 -1.421875 -1.59375 -4.484375q0 -2.53125 1.03125 -5.625q1.046875 -3.109375 3.359375 -5.359375q2.328125 -2.265625 5.828125 -2.265625q4.78125 0 4.78125 5.96875l0 0.046875q0.109375 0.03125 0.40625 0.03125q1.234375 0 2.84375 -0.65625q1.609375 -0.65625 2.90625 -1.578125l0.34375 1.0q-1.09375 1.15625 -2.828125 1.96875q-1.734375 0.796875 -3.78125 1.125q-0.296875 3.40625 -1.53125 5.953125q-1.234375 2.53125 -3.171875 3.921875q-1.9375 1.375 -4.21875 1.375zm1.484375 -3.359375q0.90625 0 1.796875 -1.03125q0.890625 -1.03125 1.5625 -2.796875q0.671875 -1.78125 0.96875 -3.9375q-1.0 -0.234375 -1.0 -1.578125q0 -1.53125 1.15625 -2.015625q-0.078125 -1.234375 -0.375 -1.6875q-0.296875 -0.46875 -1.046875 -0.46875q-1.234375 0 -2.390625 1.796875q-1.15625 1.78125 -1.859375 4.28125q-0.703125 2.5 -0.703125 4.40625q0 1.796875 0.40625 2.421875q0.40625 0.609375 1.484375 0.609375zm13.152725 3.421875q-1.796875 0 -2.90625 -1.109375q-1.09375 -1.125 -1.09375 -3.359375q0 -0.9375 0.296875 -2.4375l2.53125 -11.984375l5.375 0l-2.6875 12.703125q-0.109375 0.4375 -0.109375 0.921875q0 1.65625 1.125 1.65625q1.046875 0 1.78125 -0.875q0.75 -0.890625 1.203125 -2.421875l2.546875 -11.984375l5.375 0l-2.6875 12.703125q-0.1875 0.921875 -0.1875 1.34375q0 1.234375 1.265625 1.234375q1.71875 0 3.1875 -2.171875q1.46875 -2.171875 2.359375 -5.15625q0.90625 -2.984375 0.90625 -5.140625q-0.078125 0.1875 -0.484375 0.28125q-0.40625 0.09375 -0.703125 0.09375q-0.640625 0 -1.0 -0.59375q-0.34375 -0.609375 -0.34375 -1.3125q0 -0.90625 0.578125 -1.453125q0.578125 -0.5625 1.734375 -0.5625q1.234375 0 1.78125 0.921875q0.5625 0.90625 0.5625 2.328125q0 3.359375 -1.15625 7.1875q-1.15625 3.8125 -3.546875 6.5q-2.390625 2.6875 -5.9375 2.6875q-1.828125 0 -2.984375 -0.78125q-1.15625 -0.78125 -1.484375 -2.34375q-2.09375 3.125 -5.296875 3.125zm32.7742 0q-1.796875 0 -2.90625 -1.109375q-1.09375 -1.125 -1.09375 -3.359375q0 -0.9375 0.296875 -2.4375l2.234375 -10.484375l-1.21875 0l0.296875 -1.5l1.21875 0l1.125 -5.140625l5.53125 -0.75l-1.28125 5.890625l2.25 0l-0.296875 1.5l-2.25 0l-2.390625 11.203125q-0.140625 0.5625 -0.140625 1.1875q0 0.75 0.34375 1.078125q0.359375 0.3125 1.1875 0.3125q1.078125 0 2.015625 -0.90625q0.9375 -0.921875 1.34375 -2.390625l1.5625 0q-1.375 4.03125 -3.546875 5.46875q-2.15625 1.4375 -4.28125 1.4375zm11.716644 -0.0625q-2.765625 0 -4.375 -1.421875q-1.59375 -1.421875 -1.59375 -4.484375q0 -2.53125 1.03125 -5.625q1.046875 -3.109375 3.359375 -5.359375q2.328125 -2.265625 5.828125 -2.265625q4.78125 0 4.78125 5.96875l0 0.046875q0.109375 0.03125 0.40625 0.03125q1.234375 0 2.84375 -0.65625q1.609375 -0.65625 2.90625 -1.578125l0.34375 1.0q-1.09375 1.15625 -2.828125 1.96875q-1.734375 0.796875 -3.78125 1.125q-0.296875 3.40625 -1.53125 5.953125q-1.234375 2.53125 -3.171875 3.921875q-1.9375 1.375 -4.21875 1.375zm1.484375 -3.359375q0.90625 0 1.796875 -1.03125q0.890625 -1.03125 1.5625 -2.796875q0.671875 -1.78125 0.96875 -3.9375q-1.0 -0.234375 -1.0 -1.578125q0 -1.53125 1.15625 -2.015625q-0.078125 -1.234375 -0.375 -1.6875q-0.296875 -0.46875 -1.046875 -0.46875q-1.234375 0 -2.390625 1.796875q-1.15625 1.78125 -1.859375 4.28125q-0.703125 2.5 -0.703125 4.40625q0 1.796875 0.40625 2.421875q0.40625 0.609375 1.484375 0.609375z" fill-rule="nonzero"/><path fill="#ffffff" d="m29.731667 86.332245q-2.234375 0 -4.546875 -1.984375l-0.296875 1.5l-5.375 0l5.0625 -23.734375l5.53125 -0.75l-4.484375 20.9375q1.046875 0.75 2.140625 0.75q2.125 0 3.75 -2.46875q1.625 -2.46875 2.515625 -6.265625q0.890625 -3.8125 0.890625 -7.6875q0 -3.65625 -1.4375 -5.359375q-1.4375 -1.703125 -4.015625 -1.703125q-2.796875 0 -5.015625 1.109375q-2.21875 1.09375 -3.484375 3.15625q-1.265625 2.046875 -1.265625 4.8125q0 1.375 0.25 1.921875q0.265625 0.53125 0.265625 0.609375q-1.9375 0 -2.96875 -0.8125q-1.03125 -0.828125 -1.03125 -2.65625q0 -2.546875 1.90625 -4.8125q1.90625 -2.28125 5.09375 -3.65625q3.203125 -1.390625 6.890625 -1.390625q5.109375 0 7.53125 3.03125q2.4375 3.015625 2.4375 7.71875q0 4.265625 -1.4375 8.390625q-1.4375 4.125 -3.828125 6.734375q-2.390625 2.609375 -5.078125 2.609375zm16.467377 -0.328125q-2.765625 0 -4.375 -1.421875q-1.59375 -1.421875 -1.59375 -4.484375q0 -2.53125 1.03125 -5.625q1.046875 -3.109375 3.359375 -5.359375q2.328125 -2.265625 5.828125 -2.265625q4.78125 0 4.78125 5.96875l0 0.046875q0.109375 0.03125 0.40625 0.03125q1.234375 0 2.84375 -0.65625q1.609375 -0.65625 2.90625 -1.578125l0.34375 1.0q-1.09375 1.15625 -2.828125 1.96875q-1.734375 0.796875 -3.78125 1.125q-0.296875 3.40625 -1.53125 5.953125q-1.234375 2.53125 -3.171875 3.921875q-1.9375 1.375 -4.21875 1.375zm1.484375 -3.359375q0.90625 0 1.796875 -1.03125q0.890625 -1.03125 1.5625 -2.796875q0.671875 -1.78125 0.96875 -3.9375q-1.0 -0.234375 -1.0 -1.578125q0 -1.53125 1.15625 -2.015625q-0.078125 -1.234375 -0.375 -1.6875q-0.296875 -0.46875 -1.046875 -0.46875q-1.234375 0 -2.390625 1.796875q-1.15625 1.78125 -1.859375 4.28125q-0.703125 2.5 -0.703125 4.40625q0 1.796875 0.40625 2.421875q0.40625 0.609375 1.484375 0.609375zm22.91835 3.421875q-2.265625 0 -3.328125 -1.203125q-1.0625 -1.21875 -1.0625 -3.015625q0 -0.78125 0.171875 -1.765625q0.1875 -0.984375 0.390625 -1.921875q0.21875 -0.9375 0.28125 -1.203125q0.3125 -1.296875 0.5625 -2.5625q0.265625 -1.28125 0.265625 -2.0625q0 -1.90625 -1.34375 -1.90625q-0.96875 0 -1.71875 0.953125q-0.75 0.953125 -1.1875 2.484375l-2.546875 11.984375l-5.375 0l3.953125 -18.671875l5.375 0l-0.40625 1.953125q1.875 -2.09375 4.375 -2.09375q1.90625 0 3.015625 1.046875q1.125 1.046875 1.125 3.171875q0 1.078125 -0.265625 2.40625q-0.265625 1.328125 -0.75 3.234375q-0.296875 1.15625 -0.546875 2.265625q-0.234375 1.09375 -0.234375 1.71875q0 0.75 0.328125 1.171875q0.34375 0.40625 1.171875 0.40625q1.109375 0 1.78125 -0.796875q0.671875 -0.8125 1.34375 -2.5l1.578125 0q-1.390625 4.109375 -3.203125 5.515625q-1.796875 1.390625 -3.75 1.390625zm9.866394 0q-2.125 0 -3.546875 -1.453125q-1.421875 -1.453125 -1.421875 -4.546875q0 -2.765625 1.09375 -5.796875q1.109375 -3.046875 3.28125 -5.15625q2.1875 -2.109375 5.21875 -2.109375q1.53125 0 2.265625 0.515625q0.75 0.515625 0.75 1.375l0 0.265625l0.421875 -1.984375l5.375 0l-2.6875 12.703125q-0.15625 0.5625 -0.15625 1.1875q0 1.609375 1.53125 1.609375q1.046875 0 1.8125 -0.96875q0.765625 -0.96875 1.21875 -2.546875l1.5625 0q-1.375 4.03125 -3.421875 5.46875q-2.03125 1.4375 -4.078125 1.4375q-1.578125 0 -2.53125 -0.875q-0.9375 -0.875 -1.125 -2.546875q-1.09375 1.515625 -2.421875 2.46875q-1.3125 0.953125 -3.140625 0.953125zm2.421875 -3.609375q0.9375 0 1.84375 -0.875q0.921875 -0.890625 1.25 -2.421875l1.796875 -8.4375q0 -0.484375 -0.375 -0.9375q-0.375 -0.46875 -1.15625 -0.46875q-1.5 0 -2.6875 1.734375q-1.1875 1.734375 -1.859375 4.1875q-0.671875 2.4375 -0.671875 4.296875q0 1.875 0.53125 2.40625q0.546875 0.515625 1.328125 0.515625zm16.431534 3.609375q-1.796875 0 -2.90625 -1.109375q-1.09375 -1.125 -1.09375 -3.359375q0 -0.9375 0.296875 -2.4375l2.234375 -10.484375l-1.21875 0l0.296875 -1.5l1.21875 0l1.125 -5.140625l5.53125 -0.75l-1.28125 5.890625l2.25 0l-0.296875 1.5l-2.25 0l-2.390625 11.203125q-0.140625 0.5625 -0.140625 1.1875q0 0.75 0.34375 1.078125q0.359375 0.3125 1.1875 0.3125q1.078125 0 2.015625 -0.90625q0.9375 -0.921875 1.34375 -2.390625l1.5625 0q-1.375 4.03125 -3.546875 5.46875q-2.15625 1.4375 -4.28125 1.4375zm11.607269 0q-2.765625 0 -4.296875 -1.4375q-1.53125 -1.4375 -1.53125 -4.5q0 -2.5625 1.0 -5.65625q1.015625 -3.109375 3.28125 -5.359375q2.28125 -2.265625 5.796875 -2.265625q4.109375 0 4.109375 3.578125q0 2.09375 -1.203125 3.859375q-1.1875 1.75 -3.171875 2.8125q-1.96875 1.0625 -4.21875 1.203125q-0.0625 1.125 -0.0625 1.5q0 1.828125 0.625 2.484375q0.640625 0.65625 2.0625 0.65625q2.015625 0 3.4375 -0.9375q1.4375 -0.9375 3.15625 -2.84375l1.28125 0q-4.15625 6.90625 -10.265625 6.90625zm0.0625 -9.546875q1.390625 -0.078125 2.640625 -0.96875q1.25 -0.90625 2.015625 -2.28125q0.765625 -1.375 0.765625 -2.90625q0 -1.53125 -0.9375 -1.53125q-1.34375 0 -2.640625 2.359375q-1.28125 2.34375 -1.84375 5.328125zm26.168663 10.0q-2.34375 0 -4.140625 -0.8125q-1.796875 -0.828125 -2.765625 -2.296875q-0.96875 -1.484375 -0.96875 -3.421875q0 -1.640625 0.6875 -2.984375q0.703125 -1.34375 1.875 -2.125q1.171875 -0.796875 2.59375 -0.796875q1.3125 0 2.203125 0.65625q0.890625 0.65625 1.125 1.8125q-1.953125 0 -3.109375 1.03125q-1.15625 1.03125 -1.15625 2.78125q0 1.609375 0.96875 2.578125q0.96875 0.96875 2.578125 0.96875q1.984375 0 3.265625 -1.328125q1.296875 -1.328125 1.296875 -3.34375q0 -1.75 -0.984375 -3.3125q-0.96875 -1.578125 -2.90625 -3.8125q-2.015625 -2.3125 -3.046875 -3.96875q-1.015625 -1.671875 -1.015625 -3.65625q0 -1.9375 1.078125 -3.484375q1.078125 -1.546875 2.984375 -2.4375q1.90625 -0.90625 4.296875 -0.90625q3.015625 0 4.828125 1.421875q1.8125 1.421875 1.8125 3.8125q0 1.5625 -0.78125 2.53125q-0.78125 0.96875 -2.046875 0.96875q-1.421875 0 -2.28125 -1.15625q0.703125 -0.515625 1.109375 -1.375q0.421875 -0.859375 0.421875 -1.796875q0 -1.1875 -0.71875 -1.890625q-0.703125 -0.71875 -1.9375 -0.71875q-1.484375 0 -2.4375 1.0625q-0.953125 1.0625 -0.953125 2.703125q0 1.5 0.859375 2.796875q0.859375 1.28125 2.6875 3.296875q1.484375 1.59375 2.390625 2.765625q0.921875 1.15625 1.578125 2.671875q0.65625 1.5 0.65625 3.25q0 2.390625 -1.328125 4.34375q-1.328125 1.9375 -3.625 3.0625q-2.296875 1.109375 -5.09375 1.109375zm15.8396 -0.453125q-1.796875 0 -2.90625 -1.109375q-1.09375 -1.125 -1.09375 -3.359375q0 -0.9375 0.296875 -2.4375l2.234375 -10.484375l-1.21875 0l0.296875 -1.5l1.21875 0l1.125 -5.140625l5.53125 -0.75l-1.28125 5.890625l2.25 0l-0.296875 1.5l-2.25 0l-2.390625 11.203125q-0.140625 0.5625 -0.140625 1.1875q0 0.75 0.34375 1.078125q0.359375 0.3125 1.1875 0.3125q1.078125 0 2.015625 -0.90625q0.9375 -0.921875 1.34375 -2.390625l1.5625 0q-1.375 4.03125 -3.546875 5.46875q-2.15625 1.4375 -4.28125 1.4375zm11.716644 -0.0625q-2.765625 0 -4.375 -1.421875q-1.59375 -1.421875 -1.59375 -4.484375q0 -2.53125 1.03125 -5.625q1.046875 -3.109375 3.359375 -5.359375q2.328125 -2.265625 5.828125 -2.265625q4.78125 0 4.78125 5.96875l0 0.046875q0.109375 0.03125 0.40625 0.03125q1.234375 0 2.84375 -0.65625q1.609375 -0.65625 2.90625 -1.578125l0.34375 1.0q-1.09375 1.15625 -2.828125 1.96875q-1.734375 0.796875 -3.78125 1.125q-0.296875 3.40625 -1.53125 5.953125q-1.234375 2.53125 -3.171875 3.921875q-1.9375 1.375 -4.21875 1.375zm1.484375 -3.359375q0.90625 0 1.796875 -1.03125q0.890625 -1.03125 1.5625 -2.796875q0.671875 -1.78125 0.96875 -3.9375q-1.0 -0.234375 -1.0 -1.578125q0 -1.53125 1.15625 -2.015625q-0.078125 -1.234375 -0.375 -1.6875q-0.296875 -0.46875 -1.046875 -0.46875q-1.234375 0 -2.390625 1.796875q-1.15625 1.78125 -1.859375 4.28125q-0.703125 2.5 -0.703125 4.40625q0 1.796875 0.40625 2.421875q0.40625 0.609375 1.484375 0.609375zm14.793335 3.421875q-2.765625 0 -4.296875 -1.4375q-1.53125 -1.4375 -1.53125 -4.5q0 -2.5625 1.015625 -5.65625q1.03125 -3.109375 3.28125 -5.359375q2.265625 -2.265625 5.75 -2.265625q2.234375 0 3.1875 0.96875q0.953125 0.96875 0.953125 2.46875q0 1.296875 -0.5625 2.015625q-0.5625 0.703125 -1.421875 0.703125q-0.625 0 -1.296875 -0.4375q0.4375 -1.234375 0.4375 -2.203125q0 -0.71875 -0.265625 -1.125q-0.25 -0.40625 -0.78125 -0.40625q-1.109375 0 -2.234375 1.828125q-1.125 1.828125 -1.828125 4.4375q-0.703125 2.609375 -0.703125 4.703125q0 1.828125 0.625 2.484375q0.640625 0.65625 2.0625 0.65625q2.015625 0 3.4375 -0.9375q1.4375 -0.9375 3.15625 -2.84375l1.28125 0q-4.15625 6.90625 -10.265625 6.90625zm23.021545 0q-2.3125 0 -3.515625 -1.09375q-1.1875 -1.109375 -1.1875 -3.15625q0 -0.890625 0.234375 -1.9375l0.296875 -1.453125q0.140625 -0.640625 0.140625 -1.390625q0 -1.78125 -1.34375 -1.78125q-0.59375 0 -1.25 0.34375q-0.65625 0.328125 -1.515625 1.03125l-1.9375 9.21875l-5.375 0l5.421875 -25.390625l5.515625 -0.734375l-2.796875 13.140625l7.203125 -5.6875l3.703125 0l-7.46875 5.203125q0.5625 -0.15625 1.234375 -0.15625q2.015625 0 3.046875 1.234375q1.046875 1.234375 1.046875 3.140625q0 0.78125 -0.140625 1.40625l-0.40625 1.875q-0.1875 0.671875 -0.1875 1.1875q0 1.390625 1.453125 1.390625q1.109375 0 1.78125 -0.796875q0.6875 -0.8125 1.359375 -2.5l1.5625 0q-2.3125 6.90625 -6.875 6.90625z" fill-rule="nonzero"/></g></svg>